<svg width="190" height="39" viewBox="0 0 190 39" fill="none" xmlns="http://www.w3.org/2000/svg">
<path d="M84.0377 11.7685V14.625H69.8589V23.7656H83.376V26.622H69.8589V36.1435H84.3212V39H66.3615V11.7685H84.0377Z" fill="white"/>
<path d="M92.923 11.7685V39H89.4256V11.7685H92.923Z" fill="white"/>
<path d="M106.988 19.0049C112.635 19.0049 115.458 21.8169 115.458 27.4409C115.458 28.2407 115.401 29.0976 115.288 30.0117H101.355C101.355 34.0996 103.724 36.1435 108.463 36.1435C110.719 36.1435 112.723 35.8896 114.475 35.3818V38.2383C112.723 38.7461 110.593 39 108.085 39C101.266 39 97.8572 35.5913 97.8572 28.7739C97.8572 22.2612 100.901 19.0049 106.988 19.0049ZM101.355 27.0791H112.093C112.017 23.5752 110.316 21.8232 106.988 21.8232C103.459 21.8232 101.581 23.5752 101.355 27.0791Z" fill="white"/>
<path d="M135.1 38.4287C133.462 38.8095 131.697 39 129.807 39C122.749 39 119.22 35.5405 119.22 28.6216C119.22 22.2104 122.749 19.0049 129.807 19.0049C131.697 19.0049 133.462 19.1953 135.1 19.5762V22.4326C133.462 22.0517 131.634 21.8613 129.618 21.8613C125.017 21.8613 122.717 24.1147 122.717 28.6216C122.717 33.6362 125.017 36.1435 129.618 36.1435C131.634 36.1435 133.462 35.9531 135.1 35.5722V38.4287Z" fill="white"/>
<path d="M139.562 15.7676H141.755L142.511 19.0049H147.88V21.8613H143.059V33.3442C143.059 35.2104 143.859 36.1435 145.46 36.1435H147.88V39H144.552C141.225 39 139.562 37.2036 139.562 33.6108V15.7676Z" fill="white"/>
<path d="M152.341 39V19.0049H154.704L155.328 21.5566C157.068 19.8555 159.16 19.0049 161.605 19.0049V21.9375C159.235 21.9375 157.313 22.7817 155.839 24.4702V39H152.341Z" fill="white"/>
<path d="M168.997 19.0049V39H165.499V19.0049H168.997ZM168.997 11.7685V15.1011H165.499V11.7685H168.997Z" fill="white"/>
<path d="M190 38.4287C188.362 38.8095 186.597 39 184.707 39C177.649 39 174.12 35.5405 174.12 28.6216C174.12 22.2104 177.649 19.0049 184.707 19.0049C186.597 19.0049 188.362 19.1953 190 19.5762V22.4326C188.362 22.0517 186.534 21.8613 184.518 21.8613C179.917 21.8613 177.617 24.1147 177.617 28.6216C177.617 33.6362 179.917 36.1435 184.518 36.1435C186.534 36.1435 188.362 35.9531 190 35.5722V38.4287Z" fill="white"/>
<path d="M28.1734 0L33.7617 3.25V9.74999L28.1734 13L22.585 9.74999V3.25L28.1734 0Z" fill="white"/>
<path d="M13.1167 0L18.7051 3.25V9.74999L13.1167 13L7.52834 9.74999V3.25L13.1167 0Z" fill="white"/>
<path d="M43.2304 0L48.8188 3.25V9.74999L43.2304 13L37.6421 9.74999V3.25L43.2304 0Z" fill="white"/>
<path d="M35.7017 13.0001L41.2901 16.25V22.75L35.7017 26L30.1133 22.75V16.25L35.7017 13.0001Z" fill="white"/>
<path d="M50.7588 13.0001L56.3471 16.25V22.75L50.7588 26L45.1704 22.75V16.25L50.7588 13.0001Z" fill="white"/>
<path d="M20.645 13.0001L26.2334 16.25V22.75L20.645 26L15.0567 22.75V16.25L20.645 13.0001Z" fill="white"/>
<path d="M5.58837 13.0001L11.1767 16.25V22.75L5.58837 26L0 22.75V16.25L5.58837 13.0001Z" fill="white"/>
<path d="M28.1734 26L33.7617 29.25V35.75L28.1734 39L22.585 35.75V29.25L28.1734 26Z" fill="white"/>
<path d="M43.2304 26L48.8188 29.25V35.75L43.2304 39L37.6421 35.75V29.25L43.2304 26Z" fill="white"/>
<path d="M13.1167 26L18.7051 29.25V35.75L13.1167 39L7.52834 35.75V29.25L13.1167 26Z" fill="white"/>
</svg>
