<svg width="46" height="46" fill="none" xmlns="http://www.w3.org/2000/svg"><rect width="46" height="46" rx="8" fill="#000"/><path d="M23 12l3.27 1.89v3.78L23 19.56l-3.27-1.9V13.9L23 12zM14.19 12l3.27 1.89v3.78l-3.27 1.89-3.28-1.9V13.9L14.2 12zM31.82 12l3.27 1.89v3.78l-3.28 1.89-3.27-1.9V13.9L31.82 12zM27.4 19.56l3.28 1.88v3.78l-3.27 1.9-3.27-1.9v-3.78l3.27-1.88zM36.22 19.56l3.27 1.88v3.78l-3.27 1.9-3.27-1.9v-3.78l3.27-1.88zM18.6 19.56l3.26 1.88v3.78l-3.27 1.9-3.27-1.9v-3.78l3.27-1.88zM9.78 19.56l3.27 1.88v3.78l-3.27 1.9-3.27-1.9v-3.78l3.27-1.88zM23 27.11L26.27 29v3.78L23 34.67l-3.27-1.9V29L23 27.11zM31.82 27.11L35.09 29v3.78l-3.28 1.89-3.27-1.9V29l3.28-1.89zM14.19 27.11L17.46 29v3.78l-3.27 1.89-3.28-1.9V29l3.28-1.89z" fill="#fff"/></svg>
